<?xml version="1.0" encoding="UTF-8" standalone="no"?>
<!DOCTYPE svg PUBLIC "-//W3C//DTD SVG 1.1//EN"
 "http://www.w3.org/Graphics/SVG/1.1/DTD/svg11.dtd">
<!-- Generated by graphviz version 2.43.0 (0)
 -->
<!-- Title: G Pages: 1 -->
<svg width="1206pt" height="283pt"
 viewBox="0.00 0.00 1206.00 283.00" xmlns="http://www.w3.org/2000/svg" xmlns:xlink="http://www.w3.org/1999/xlink">
<g id="graph0" class="graph" transform="scale(1 1) rotate(0) translate(4 279)">
<title>G</title>
<polygon fill="white" stroke="transparent" points="-4,4 -4,-279 1202,-279 1202,4 -4,4"/>
<text text-anchor="middle" x="84" y="-7.8" font-family="Times,serif" font-size="14.00">autoware_reference_system</text>
<!-- Front Lidar Driver -->
<g id="node1" class="node">
<title>Front Lidar Driver</title>
<polygon fill="#fcd975" stroke="black" stroke-width="2" points="181,-275 63,-275 63,-239 181,-239 181,-275"/>
<text text-anchor="middle" x="122" y="-253.3" font-family="Times,serif" font-size="14.00">Front Lidar Driver</text>
</g>
<!-- Front Points Transformer -->
<g id="node6" class="node">
<title>Front Points Transformer</title>
<polygon fill="#469986" stroke="black" stroke-width="2" points="199.5,-203 44.5,-203 44.5,-167 199.5,-167 199.5,-203"/>
<text text-anchor="middle" x="122" y="-181.3" font-family="Times,serif" font-size="14.00">Front Points Transformer</text>
</g>
<!-- Front Lidar Driver&#45;&gt;Front Points Transformer -->
<g id="edge1" class="edge">
<title>Front Lidar Driver&#45;&gt;Front Points Transformer</title>
<path fill="none" stroke="black" d="M122,-238.7C122,-230.98 122,-221.71 122,-213.11"/>
<polygon fill="black" stroke="black" points="125.5,-213.1 122,-203.1 118.5,-213.1 125.5,-213.1"/>
</g>
<!-- Rear Lidar Driver -->
<g id="node2" class="node">
<title>Rear Lidar Driver</title>
<polygon fill="#fcd975" stroke="black" stroke-width="2" points="368,-275 254,-275 254,-239 368,-239 368,-275"/>
<text text-anchor="middle" x="311" y="-253.3" font-family="Times,serif" font-size="14.00">Rear Lidar Driver</text>
</g>
<!-- Rear Points Transformer -->
<g id="node7" class="node">
<title>Rear Points Transformer</title>
<polygon fill="#469986" stroke="black" stroke-width="2" points="386.5,-203 235.5,-203 235.5,-167 386.5,-167 386.5,-203"/>
<text text-anchor="middle" x="311" y="-181.3" font-family="Times,serif" font-size="14.00">Rear Points Transformer</text>
</g>
<!-- Rear Lidar Driver&#45;&gt;Rear Points Transformer -->
<g id="edge2" class="edge">
<title>Rear Lidar Driver&#45;&gt;Rear Points Transformer</title>
<path fill="none" stroke="black" d="M311,-238.7C311,-230.98 311,-221.71 311,-213.11"/>
<polygon fill="black" stroke="black" points="314.5,-213.1 311,-203.1 307.5,-213.1 314.5,-213.1"/>
</g>
<!-- Point Cloud Map -->
<g id="node3" class="node">
<title>Point Cloud Map</title>
<path fill="#fcd975" stroke="black" stroke-width="2" d="M554.5,-271.73C554.5,-273.53 529.62,-275 499,-275 468.38,-275 443.5,-273.53 443.5,-271.73 443.5,-271.73 443.5,-242.27 443.5,-242.27 443.5,-240.47 468.38,-239 499,-239 529.62,-239 554.5,-240.47 554.5,-242.27 554.5,-242.27 554.5,-271.73 554.5,-271.73"/>
<path fill="none" stroke="black" stroke-width="2" d="M554.5,-271.73C554.5,-269.92 529.62,-268.45 499,-268.45 468.38,-268.45 443.5,-269.92 443.5,-271.73"/>
<text text-anchor="middle" x="499" y="-253.3" font-family="Times,serif" font-size="14.00">Point Cloud Map</text>
</g>
<!-- Point Cloud Map Loader -->
<g id="node8" class="node">
<title>Point Cloud Map Loader</title>
<polygon fill="#469986" stroke="black" stroke-width="2" points="575.5,-203 422.5,-203 422.5,-167 575.5,-167 575.5,-203"/>
<text text-anchor="middle" x="499" y="-181.3" font-family="Times,serif" font-size="14.00">Point Cloud Map Loader</text>
</g>
<!-- Point Cloud Map&#45;&gt;Point Cloud Map Loader -->
<g id="edge3" class="edge">
<title>Point Cloud Map&#45;&gt;Point Cloud Map Loader</title>
<path fill="none" stroke="black" d="M499,-238.7C499,-230.98 499,-221.71 499,-213.11"/>
<polygon fill="black" stroke="black" points="502.5,-213.1 499,-203.1 495.5,-213.1 502.5,-213.1"/>
</g>
<!-- Visualizer -->
<g id="node4" class="node">
<title>Visualizer</title>
<polygon fill="#fcd975" stroke="black" stroke-width="2" points="722,-275 654,-275 650,-271 650,-239 718,-239 722,-243 722,-275"/>
<polyline fill="none" stroke="black" stroke-width="2" points="718,-271 650,-271 "/>
<polyline fill="none" stroke="black" stroke-width="2" points="718,-271 718,-239 "/>
<polyline fill="none" stroke="black" stroke-width="2" points="718,-271 722,-275 "/>
<text text-anchor="middle" x="686" y="-253.3" font-family="Times,serif" font-size="14.00">Visualizer</text>
</g>
<!-- Lanelet2 Global Planner -->
<g id="node22" class="node">
<title>Lanelet2 Global Planner</title>
<polygon fill="#9d813b" stroke="black" stroke-width="2" points="760.5,-203 611.5,-203 611.5,-167 760.5,-167 760.5,-203"/>
<text text-anchor="middle" x="686" y="-181.3" font-family="Times,serif" font-size="14.00">Lanelet2 Global Planner</text>
</g>
<!-- Visualizer&#45;&gt;Lanelet2 Global Planner -->
<g id="edge4" class="edge">
<title>Visualizer&#45;&gt;Lanelet2 Global Planner</title>
<path fill="none" stroke="black" d="M686,-238.7C686,-230.98 686,-221.71 686,-213.11"/>
<polygon fill="black" stroke="black" points="689.5,-213.1 686,-203.1 682.5,-213.1 689.5,-213.1"/>
</g>
<!-- Lanelet2 Map -->
<g id="node5" class="node">
<title>Lanelet2 Map</title>
<path fill="#fcd975" stroke="black" stroke-width="2" d="M910.5,-271.73C910.5,-273.53 889.66,-275 864,-275 838.34,-275 817.5,-273.53 817.5,-271.73 817.5,-271.73 817.5,-242.27 817.5,-242.27 817.5,-240.47 838.34,-239 864,-239 889.66,-239 910.5,-240.47 910.5,-242.27 910.5,-242.27 910.5,-271.73 910.5,-271.73"/>
<path fill="none" stroke="black" stroke-width="2" d="M910.5,-271.73C910.5,-269.92 889.66,-268.45 864,-268.45 838.34,-268.45 817.5,-269.92 817.5,-271.73"/>
<text text-anchor="middle" x="864" y="-253.3" font-family="Times,serif" font-size="14.00">Lanelet2 Map</text>
</g>
<!-- Lanelet2 Map Loader -->
<g id="node21" class="node">
<title>Lanelet2 Map Loader</title>
<polygon fill="#9d813b" stroke="black" stroke-width="2" points="931.5,-203 796.5,-203 796.5,-167 931.5,-167 931.5,-203"/>
<text text-anchor="middle" x="864" y="-181.3" font-family="Times,serif" font-size="14.00">Lanelet2 Map Loader</text>
</g>
<!-- Lanelet2 Map&#45;&gt;Lanelet2 Map Loader -->
<g id="edge5" class="edge">
<title>Lanelet2 Map&#45;&gt;Lanelet2 Map Loader</title>
<path fill="none" stroke="black" d="M864,-238.7C864,-230.98 864,-221.71 864,-213.11"/>
<polygon fill="black" stroke="black" points="867.5,-213.1 864,-203.1 860.5,-213.1 867.5,-213.1"/>
</g>
<!-- Point Cloud Fusion -->
<g id="node18" class="node">
<title>Point Cloud Fusion</title>
<polygon fill="#9d813b" stroke="black" stroke-width="2" points="372,-131 250,-131 250,-95 372,-95 372,-131"/>
<text text-anchor="middle" x="311" y="-109.3" font-family="Times,serif" font-size="14.00">Point Cloud Fusion</text>
</g>
<!-- Front Points Transformer&#45;&gt;Point Cloud Fusion -->
<g id="edge6" class="edge">
<title>Front Points Transformer&#45;&gt;Point Cloud Fusion</title>
<path fill="none" stroke="black" d="M168.23,-166.88C194.53,-157.14 227.64,-144.87 255.36,-134.61"/>
<polygon fill="black" stroke="black" points="256.75,-137.82 264.92,-131.07 254.32,-131.26 256.75,-137.82"/>
</g>
<!-- Rear Points Transformer&#45;&gt;Point Cloud Fusion -->
<g id="edge7" class="edge">
<title>Rear Points Transformer&#45;&gt;Point Cloud Fusion</title>
<path fill="none" stroke="black" d="M311,-166.7C311,-158.98 311,-149.71 311,-141.11"/>
<polygon fill="black" stroke="black" points="314.5,-141.1 311,-131.1 307.5,-141.1 314.5,-141.1"/>
</g>
<!-- NDT Localizer -->
<g id="node19" class="node">
<title>NDT Localizer</title>
<polygon fill="#9d813b" stroke="black" stroke-width="2" points="700,-131 602,-131 602,-95 700,-95 700,-131"/>
<text text-anchor="middle" x="651" y="-109.3" font-family="Times,serif" font-size="14.00">NDT Localizer</text>
</g>
<!-- Point Cloud Map Loader&#45;&gt;NDT Localizer -->
<g id="edge8" class="edge">
<title>Point Cloud Map Loader&#45;&gt;NDT Localizer</title>
<path fill="none" stroke="black" d="M536.18,-166.88C556.87,-157.35 582.8,-145.41 604.78,-135.28"/>
<polygon fill="black" stroke="black" points="606.32,-138.43 613.94,-131.07 603.39,-132.07 606.32,-138.43"/>
</g>
<!-- Voxel Grid Downsampler -->
<g id="node9" class="node">
<title>Voxel Grid Downsampler</title>
<polygon fill="#469986" stroke="black" stroke-width="2" points="565.5,-131 408.5,-131 408.5,-95 565.5,-95 565.5,-131"/>
<text text-anchor="middle" x="487" y="-109.3" font-family="Times,serif" font-size="14.00">Voxel Grid Downsampler</text>
</g>
<!-- Voxel Grid Downsampler&#45;&gt;NDT Localizer -->
<g id="edge18" class="edge">
<title>Voxel Grid Downsampler&#45;&gt;NDT Localizer</title>
<path fill="none" stroke="black" d="M565.8,-99.52C574.41,-99.41 583.02,-99.75 591.63,-100.53"/>
<polygon fill="black" stroke="black" points="591.42,-104.03 601.74,-101.65 592.19,-97.07 591.42,-104.03"/>
</g>
<!-- Voxel Grid Downsampler&#45;&gt;NDT Localizer -->
<!-- Ray Ground Filter -->
<g id="node10" class="node">
<title>Ray Ground Filter</title>
<polygon fill="#469986" stroke="black" stroke-width="2" points="274,-59 158,-59 158,-23 274,-23 274,-59"/>
<text text-anchor="middle" x="216" y="-37.3" font-family="Times,serif" font-size="14.00">Ray Ground Filter</text>
</g>
<!-- Euclidean Cluster Detector -->
<g id="node17" class="node">
<title>Euclidean Cluster Detector</title>
<polygon fill="#ff6961" stroke="black" stroke-width="2" points="540.25,-33.54 540.25,-48.46 472.74,-59 377.26,-59 309.75,-48.46 309.75,-33.54 377.26,-23 472.74,-23 540.25,-33.54"/>
<text text-anchor="middle" x="425" y="-37.3" font-family="Times,serif" font-size="14.00">Euclidean Cluster Detector</text>
</g>
<!-- Ray Ground Filter&#45;&gt;Euclidean Cluster Detector -->
<!-- Ray Ground Filter&#45;&gt;Euclidean Cluster Detector -->
<g id="edge33" class="edge">
<title>Ray Ground Filter&#45;&gt;Euclidean Cluster Detector</title>
<path fill="none" stroke="black" d="M274.37,-41C282.74,-41 291.11,-41 299.47,-41"/>
<polygon fill="black" stroke="black" points="299.68,-44.5 309.68,-41 299.68,-37.5 299.68,-44.5"/>
</g>
<!-- Ray Ground Filter&#45;&gt;Euclidean Cluster Detector -->
<!-- Object Collision Estimator -->
<g id="node11" class="node">
<title>Object Collision Estimator</title>
<polygon fill="#469986" stroke="black" stroke-width="2" points="739.5,-59 576.5,-59 576.5,-23 739.5,-23 739.5,-59"/>
<text text-anchor="middle" x="658" y="-37.3" font-family="Times,serif" font-size="14.00">Object Collision Estimator</text>
</g>
<!-- MPC Controller -->
<g id="node12" class="node">
<title>MPC Controller</title>
<polygon fill="#469986" stroke="black" stroke-width="2" points="880.5,-59 775.5,-59 775.5,-23 880.5,-23 880.5,-59"/>
<text text-anchor="middle" x="828" y="-37.3" font-family="Times,serif" font-size="14.00">MPC Controller</text>
</g>
<!-- Object Collision Estimator&#45;&gt;MPC Controller -->
<!-- Object Collision Estimator&#45;&gt;MPC Controller -->
<!-- Behavior Planner -->
<g id="node23" class="node">
<title>Behavior Planner</title>
<polygon fill="#2576e8" stroke="black" stroke-width="2" points="883.5,-131 772.5,-131 772.5,-95 883.5,-95 883.5,-131"/>
<text text-anchor="middle" x="828" y="-109.3" font-family="Times,serif" font-size="14.00">Behavior Planner</text>
</g>
<!-- Object Collision Estimator&#45;&gt;Behavior Planner -->
<g id="edge35" class="edge">
<title>Object Collision Estimator&#45;&gt;Behavior Planner</title>
<path fill="none" stroke="black" d="M699.45,-59.07C722.88,-68.71 752.34,-80.85 777.15,-91.06"/>
<polygon fill="black" stroke="black" points="775.83,-94.3 786.41,-94.88 778.5,-87.83 775.83,-94.3"/>
</g>
<!-- Vehicle Interface -->
<g id="node20" class="node">
<title>Vehicle Interface</title>
<polygon fill="#9d813b" stroke="black" stroke-width="2" points="1025.5,-59 916.5,-59 916.5,-23 1025.5,-23 1025.5,-59"/>
<text text-anchor="middle" x="971" y="-37.3" font-family="Times,serif" font-size="14.00">Vehicle Interface</text>
</g>
<!-- MPC Controller&#45;&gt;Vehicle Interface -->
<!-- MPC Controller&#45;&gt;Vehicle Interface -->
<g id="edge36" class="edge">
<title>MPC Controller&#45;&gt;Vehicle Interface</title>
<path fill="none" stroke="black" d="M880.51,-41C889.06,-41 897.62,-41 906.17,-41"/>
<polygon fill="black" stroke="black" points="906.21,-44.5 916.21,-41 906.21,-37.5 906.21,-44.5"/>
</g>
<!-- MPC Controller&#45;&gt;Vehicle Interface -->
<!-- Lane Planner -->
<g id="node13" class="node">
<title>Lane Planner</title>
<polygon fill="#469986" stroke="black" stroke-width="2" points="1008.5,-131 919.5,-131 919.5,-95 1008.5,-95 1008.5,-131"/>
<text text-anchor="middle" x="964" y="-109.3" font-family="Times,serif" font-size="14.00">Lane Planner</text>
</g>
<!-- Lane Planner&#45;&gt;Behavior Planner -->
<g id="edge23" class="edge">
<title>Lane Planner&#45;&gt;Behavior Planner</title>
<path fill="none" stroke="black" d="M919.36,-113C910.77,-113 902.18,-113 893.6,-113"/>
<polygon fill="black" stroke="black" points="893.52,-109.5 883.52,-113 893.52,-116.5 893.52,-109.5"/>
</g>
<!-- Parking Planner -->
<g id="node14" class="node">
<title>Parking Planner</title>
<polygon fill="#469986" stroke="black" stroke-width="2" points="1072,-203 968,-203 968,-167 1072,-167 1072,-203"/>
<text text-anchor="middle" x="1020" y="-181.3" font-family="Times,serif" font-size="14.00">Parking Planner</text>
</g>
<!-- Parking Planner&#45;&gt;Behavior Planner -->
<g id="edge13" class="edge">
<title>Parking Planner&#45;&gt;Behavior Planner</title>
<path fill="none" stroke="black" d="M973.03,-166.88C946.32,-157.14 912.68,-144.87 884.53,-134.61"/>
<polygon fill="black" stroke="black" points="885.41,-131.21 874.82,-131.07 883.01,-137.78 885.41,-131.21"/>
</g>
<!-- Euclidean Cluster Settings -->
<g id="node15" class="node">
<title>Euclidean Cluster Settings</title>
<polygon fill="#ff6961" stroke="black" stroke-width="2" points="213.5,-131 52.5,-131 52.5,-95 213.5,-95 213.5,-131"/>
<text text-anchor="middle" x="133" y="-109.3" font-family="Times,serif" font-size="14.00">Euclidean Cluster Settings</text>
</g>
<!-- Euclidean Cluster Settings&#45;&gt;Euclidean Cluster Detector -->
<g id="edge15" class="edge">
<title>Euclidean Cluster Settings&#45;&gt;Euclidean Cluster Detector</title>
<path fill="none" stroke="black" d="M204.06,-94.97C249.35,-84.11 307.85,-70.08 353.27,-59.19"/>
<polygon fill="black" stroke="black" points="354.14,-62.59 363.05,-56.85 352.51,-55.78 354.14,-62.59"/>
</g>
<!-- Euclidean Cluster Settings&#45;&gt;Point Cloud Fusion -->
<!-- Intersection Output -->
<g id="node16" class="node">
<title>Intersection Output</title>
<polygon fill="#ff6961" stroke="black" stroke-width="2" points="122,-59 0,-59 0,-23 122,-23 122,-59"/>
<text text-anchor="middle" x="61" y="-37.3" font-family="Times,serif" font-size="14.00">Intersection Output</text>
</g>
<!-- Intersection Output&#45;&gt;Ray Ground Filter -->
<!-- Intersection Output&#45;&gt;Ray Ground Filter -->
<!-- Euclidean Cluster Detector&#45;&gt;Object Collision Estimator -->
<!-- Euclidean Cluster Detector&#45;&gt;Object Collision Estimator -->
<g id="edge34" class="edge">
<title>Euclidean Cluster Detector&#45;&gt;Object Collision Estimator</title>
<path fill="none" stroke="black" d="M540.59,-41C549.16,-41 557.73,-41 566.3,-41"/>
<polygon fill="black" stroke="black" points="566.36,-44.5 576.36,-41 566.36,-37.5 566.36,-44.5"/>
</g>
<!-- Euclidean Cluster Detector&#45;&gt;Object Collision Estimator -->
<!-- Euclidean Cluster Detector&#45;&gt;Intersection Output -->
<g id="edge32" class="edge">
<title>Euclidean Cluster Detector&#45;&gt;Intersection Output</title>
<path fill="none" stroke="black" d="M371.09,-58.11C317,-72.97 231.43,-90.19 158,-77 141.9,-74.11 124.98,-68.72 109.87,-62.98"/>
<polygon fill="black" stroke="black" points="110.8,-59.58 100.22,-59.17 108.24,-66.1 110.8,-59.58"/>
</g>
<!-- Point Cloud Fusion&#45;&gt;Voxel Grid Downsampler -->
<g id="edge17" class="edge">
<title>Point Cloud Fusion&#45;&gt;Voxel Grid Downsampler</title>
<path fill="none" stroke="black" d="M372.19,-100.75C380.78,-99.95 389.38,-99.53 397.98,-99.5"/>
<polygon fill="black" stroke="black" points="398.02,-103 408.07,-99.64 398.12,-96 398.02,-103"/>
</g>
<!-- Point Cloud Fusion&#45;&gt;Voxel Grid Downsampler -->
<!-- Point Cloud Fusion&#45;&gt;Ray Ground Filter -->
<g id="edge16" class="edge">
<title>Point Cloud Fusion&#45;&gt;Ray Ground Filter</title>
<path fill="none" stroke="black" d="M287.52,-94.7C275.44,-85.8 260.55,-74.82 247.48,-65.2"/>
<polygon fill="black" stroke="black" points="249.34,-62.22 239.21,-59.1 245.19,-67.85 249.34,-62.22"/>
</g>
<!-- NDT Localizer&#45;&gt;Lanelet2 Global Planner -->
<g id="edge20" class="edge">
<title>NDT Localizer&#45;&gt;Lanelet2 Global Planner</title>
<path fill="none" stroke="black" d="M659.55,-131.1C663.52,-139.04 668.33,-148.67 672.76,-157.51"/>
<polygon fill="black" stroke="black" points="669.75,-159.32 677.35,-166.7 676.01,-156.19 669.75,-159.32"/>
</g>
<!-- NDT Localizer&#45;&gt;Behavior Planner -->
<g id="edge19" class="edge">
<title>NDT Localizer&#45;&gt;Behavior Planner</title>
<path fill="none" stroke="black" d="M700.09,-113C720.7,-113 741.31,-113 761.92,-113"/>
<polygon fill="black" stroke="black" points="762.04,-116.5 772.04,-113 762.04,-109.5 762.04,-116.5"/>
</g>
<!-- Vehicle DBW System -->
<g id="node24" class="node">
<title>Vehicle DBW System</title>
<polygon fill="#ffaa66" stroke="black" stroke-width="2" points="1198,-59 1062,-59 1062,-23 1198,-23 1198,-59"/>
<text text-anchor="middle" x="1130" y="-37.3" font-family="Times,serif" font-size="14.00">Vehicle DBW System</text>
</g>
<!-- Vehicle Interface&#45;&gt;Vehicle DBW System -->
<g id="edge37" class="edge">
<title>Vehicle Interface&#45;&gt;Vehicle DBW System</title>
<path fill="none" stroke="black" d="M1025.66,-41C1034.35,-41 1043.04,-41 1051.73,-41"/>
<polygon fill="black" stroke="black" points="1051.93,-44.5 1061.93,-41 1051.93,-37.5 1051.93,-44.5"/>
</g>
<!-- Lanelet2 Map Loader&#45;&gt;Lane Planner -->
<g id="edge14" class="edge">
<title>Lanelet2 Map Loader&#45;&gt;Lane Planner</title>
<path fill="none" stroke="black" d="M888.46,-166.88C901.3,-157.89 917.2,-146.76 931.09,-137.03"/>
<polygon fill="black" stroke="black" points="933.26,-139.79 939.44,-131.19 929.24,-134.06 933.26,-139.79"/>
</g>
<!-- Lanelet2 Map Loader&#45;&gt;Parking Planner -->
<g id="edge12" class="edge">
<title>Lanelet2 Map Loader&#45;&gt;Parking Planner</title>
<path fill="none" stroke="black" d="M931.64,-185C940.32,-185 949.01,-185 957.69,-185"/>
<polygon fill="black" stroke="black" points="957.88,-188.5 967.88,-185 957.88,-181.5 957.88,-188.5"/>
</g>
<!-- Lanelet2 Map Loader&#45;&gt;Behavior Planner -->
<g id="edge11" class="edge">
<title>Lanelet2 Map Loader&#45;&gt;Behavior Planner</title>
<path fill="none" stroke="black" d="M855.1,-166.7C851,-158.73 846.05,-149.1 841.51,-140.26"/>
<polygon fill="black" stroke="black" points="844.48,-138.4 836.8,-131.1 838.26,-141.6 844.48,-138.4"/>
</g>
<!-- Lanelet2 Global Planner&#45;&gt;Lanelet2 Map Loader -->
<g id="edge9" class="edge">
<title>Lanelet2 Global Planner&#45;&gt;Lanelet2 Map Loader</title>
<path fill="none" stroke="black" d="M760.75,-185C769.16,-185 777.57,-185 785.98,-185"/>
<polygon fill="black" stroke="black" points="786.24,-188.5 796.24,-185 786.24,-181.5 786.24,-188.5"/>
</g>
<!-- Lanelet2 Global Planner&#45;&gt;Behavior Planner -->
<g id="edge10" class="edge">
<title>Lanelet2 Global Planner&#45;&gt;Behavior Planner</title>
<path fill="none" stroke="black" d="M720.74,-166.88C739.82,-157.47 763.68,-145.71 784.05,-135.67"/>
<polygon fill="black" stroke="black" points="785.71,-138.75 793.13,-131.19 782.61,-132.47 785.71,-138.75"/>
</g>
<!-- Behavior Planner&#45;&gt;MPC Controller -->
<g id="edge21" class="edge">
<title>Behavior Planner&#45;&gt;MPC Controller</title>
<path fill="none" stroke="black" d="M828,-94.7C828,-86.98 828,-77.71 828,-69.11"/>
<polygon fill="black" stroke="black" points="831.5,-69.1 828,-59.1 824.5,-69.1 831.5,-69.1"/>
</g>
<!-- Behavior Planner&#45;&gt;Vehicle Interface -->
<g id="edge22" class="edge">
<title>Behavior Planner&#45;&gt;Vehicle Interface</title>
<path fill="none" stroke="black" d="M862.98,-94.88C882.2,-85.47 906.23,-73.71 926.74,-63.67"/>
<polygon fill="black" stroke="black" points="928.44,-66.73 935.88,-59.19 925.36,-60.44 928.44,-66.73"/>
</g>
</g>
</svg>
